HIERARCHY
ROOT Hips
{
	OFFSET 0.000000 0.000000 0.000000
	CHANNELS 6 Xposition Yposition Zposition Zrotation Yrotation Xrotation 
	JOINT LHipJoint
	{
		OFFSET 0.000000 0.000000 0.000000
		CHANNELS 3 Zrotation Yrotation Xrotation
		JOINT LeftUpLeg
		{
			OFFSET 1.363060 -1.794630 0.839290
			CHANNELS 3 Zrotation Yrotation Xrotation
			JOINT LeftLeg
			{
				OFFSET 2.448110 -6.726130 0.000000
				CHANNELS 3 Zrotation Yrotation Xrotation
				JOINT LeftFoot
				{
					OFFSET 2.562200 -7.039590 0.000000
					CHANNELS 3 Zrotation Yrotation Xrotation
					JOINT LeftToeBase
					{
						OFFSET 0.157640 -0.433110 2.322550
						CHANNELS 3 Zrotation Yrotation Xrotation
						End Site
						{
							OFFSET 0.000000 0.000000 0.000000
						}
					}
				}
			}
		}
	}
	JOINT RHipJoint
	{
		OFFSET 0.000000 0.000000 0.000000
		CHANNELS 3 Zrotation Yrotation Xrotation
		JOINT RightUpLeg
		{
			OFFSET -1.305520 -1.794630 0.839290
			CHANNELS 3 Zrotation Yrotation Xrotation
			JOINT RightLeg
			{
				OFFSET -2.542530 -6.985550 0.000000
				CHANNELS 3 Zrotation Yrotation Xrotation
				JOINT RightFoot
				{
					OFFSET -2.568260 -7.056230 0.000000
					CHANNELS 3 Zrotation Yrotation Xrotation
					JOINT RightToeBase
					{
						OFFSET -0.164730 -0.452590 2.363150
						CHANNELS 3 Zrotation Yrotation Xrotation
						End Site
						{
							OFFSET 0.000000 0.000000 0.000000
						}
					}
				}
			}
		}
	}
	JOINT LowerBack
	{
		OFFSET 0.000000 0.000000 0.000000
		CHANNELS 3 Zrotation Yrotation Xrotation
		JOINT Spine
		{
			OFFSET 0.028270 2.035590 -0.193380
			CHANNELS 3 Zrotation Yrotation Xrotation
			JOINT Spine1
			{
				OFFSET 0.056720 2.048850 -0.042750
				CHANNELS 3 Zrotation Yrotation Xrotation
				JOINT Neck
				{
					OFFSET 0.000000 0.000000 0.000000
					CHANNELS 3 Zrotation Yrotation Xrotation
					JOINT Neck1
					{
						OFFSET -0.054170 1.746240 0.172020
						CHANNELS 3 Zrotation Yrotation Xrotation
						JOINT Head
						{
							OFFSET 0.104070 1.761360 -0.123970
							CHANNELS 3 Zrotation Yrotation Xrotation
							End Site
							{
								OFFSET 0.000000 0.000000 0.000000
							}
						}
					}
				}
				JOINT LeftShoulder
				{
					OFFSET 0.000000 0.000000 0.000000
					CHANNELS 3 Zrotation Yrotation Xrotation
					JOINT LeftArm
					{
						OFFSET 3.362410 1.200890 -0.311210
						CHANNELS 3 Zrotation Yrotation Xrotation
						JOINT LeftForeArm
						{
							OFFSET 4.983000 -0.000000 -0.000000
							CHANNELS 3 Zrotation Yrotation Xrotation
							JOINT LeftHand
							{
								OFFSET 3.483560 -0.000000 -0.000000
								CHANNELS 3 Zrotation Yrotation Xrotation
								JOINT LeftFingerBase
								{
									OFFSET 0.000000 0.000000 0.000000
									CHANNELS 3 Zrotation Yrotation Xrotation
									JOINT LeftHandIndex1
									{
										OFFSET 0.715260 -0.000000 -0.000000
										CHANNELS 3 Zrotation Yrotation Xrotation
										End Site
										{
											OFFSET 0.000000 0.000000 0.000000
										}
									}
								}
								JOINT LThumb
								{
									OFFSET 0.000000 0.000000 0.000000
									CHANNELS 3 Zrotation Yrotation Xrotation
									End Site
									{
										OFFSET 0.000000 0.000000 0.000000
									}
								}
							}
						}
					}
				}
				JOINT RightShoulder
				{
					OFFSET 0.000000 0.000000 0.000000
					CHANNELS 3 Zrotation Yrotation Xrotation
					JOINT RightArm
					{
						OFFSET -3.136600 1.374050 -0.404650
						CHANNELS 3 Zrotation Yrotation Xrotation
						JOINT RightForeArm
						{
							OFFSET -5.241900 -0.000000 -0.000000
							CHANNELS 3 Zrotation Yrotation Xrotation
							JOINT RightHand
							{
								OFFSET -3.444170 -0.000000 -0.000000
								CHANNELS 3 Zrotation Yrotation Xrotation
								JOINT RightFingerBase
								{
									OFFSET 0.000000 0.000000 0.000000
									CHANNELS 3 Zrotation Yrotation Xrotation
									JOINT RightHandIndex1
									{
										OFFSET -0.622530 -0.000000 -0.000000
										CHANNELS 3 Zrotation Yrotation Xrotation
										End Site
										{
											OFFSET 0.000000 0.000000 0.000000
										}
									}
								}
								JOINT RThumb
								{
									OFFSET 0.000000 0.000000 0.000000
									CHANNELS 3 Zrotation Yrotation Xrotation
									End Site
									{
										OFFSET 0.000000 0.000000 0.000000
									}
								}
							}
						}
					}
				}
			}
		}
	}
}
MOTION
Frames: 6
Frame Time: 0.008333
-1.979745 16.800606 0.314664 -146.863324 77.267673 -134.078876 -9.984823 -1.668243 -3.941600 -16.929298 10.893883 -36.335055 -2.095356 0.779521 30.207110 2.711955 12.247443 -16.299125 178.119300 0.000000 -0.418200 11.152336 -1.015818 -6.252038 -1.486807 -19.166073 -23.310181 -0.084637 -5.030033 60.454402 -1.452481 2.657016 30.510944 2.359200 0.000000 -71.168500 -5.382183 1.269673 12.488378 -2.631513 1.481704 -0.418290 -8.142692 1.501059 0.355025 7.734743 5.418293 5.741454 -4.652407 -0.428617 2.908955 0.000000 0.000000 0.000000 -6.917414 3.902412 1.491777 -59.104207 12.700533 7.924327 -3.642774 -12.527583 -0.005139 0.585846 5.651458 0.031882 -0.056320 -0.082675 -0.000000 0.000000 0.000000 0.000000 0.000000 0.000000 0.000000 16.496221 5.702489 -2.836427 77.539912 31.616384 20.377131 1.856644 43.237335 0.002181 -1.110785 11.787460 -0.119315 0.027280 -0.228898 -0.000000 0.000000 0.000000 0.000000 0.000000 0.000000 0.000000 
-1.877367 16.822259 0.224460 -147.176812 77.088258 -134.542956 -10.021667 -1.627051 -3.964318 -16.903415 10.792003 -35.175569 -2.086942 0.692672 29.542315 2.746905 12.399263 -16.599946 -1.987900 0.000000 -0.034700 11.129180 -0.912063 -6.237340 -1.483958 -18.772742 -24.265447 -0.213230 -5.142568 61.932770 -1.536166 1.297885 29.807026 1.553700 -0.000001 -69.063600 -5.194998 1.323116 12.510543 -2.594506 1.540799 -0.392118 -8.125587 1.559333 0.415931 7.211881 5.680296 5.893105 -4.713203 -0.431415 2.933863 0.000000 0.000000 0.000000 -7.252517 3.917328 1.465672 -58.997757 10.913849 7.245487 -3.599432 -12.268722 -0.003514 1.482560 5.631663 0.076223 -0.051423 -0.073206 -0.000000 0.000000 0.000000 0.000000 0.000000 0.000000 0.000000 16.140998 5.833413 -2.848145 77.472725 31.338976 19.741562 1.896643 42.182834 0.002632 -1.012699 11.555352 -0.106733 0.027506 -0.219100 -0.000000 0.000000 0.000000 0.000000 0.000000 0.000000 0.000000 
-1.775215 16.846741 0.132174 -147.494246 76.820886 -134.972426 -10.082786 -1.589757 -3.947275 -16.796611 10.585024 -34.011563 -2.066317 0.603526 28.774047 2.765288 12.512365 -16.712120 -2.041401 -0.000000 -0.360600 11.082114 -0.839905 -6.208496 -1.337546 -18.293652 -25.203002 -0.338568 -5.241729 63.215546 -1.572334 0.288735 28.693614 0.955399 0.000000 -67.474800 -4.944196 1.368911 12.482149 -2.544874 1.592428 -0.371778 -8.113439 1.610164 0.493503 6.720939 5.908802 6.015243 -4.778790 -0.434000 2.952272 0.000000 0.000000 0.000000 -7.555864 3.962081 1.433739 -58.937247 9.065276 6.549222 -3.540521 -12.193696 -0.001760 2.524753 5.469374 0.124065 -0.045238 -0.064324 -0.000000 0.000000 0.000000 0.000000 0.000000 0.000000 0.000000 15.843631 5.918378 -2.840577 77.286504 31.055963 19.201708 1.949036 41.140261 0.003411 -0.747776 11.263717 -0.077253 0.026598 -0.208020 -0.000000 0.000000 0.000000 0.000000 0.000000 0.000000 0.000000 
-1.672976 16.873598 0.039162 -147.923431 76.463413 -135.475998 -10.163970 -1.553684 -3.893390 -16.634637 10.267905 -32.862262 -2.034556 0.516676 27.955403 2.765979 12.577844 -16.652179 -2.043000 0.000000 -0.548400 11.015294 -0.794952 -6.166835 -1.083696 -17.754761 -26.109425 -0.455076 -5.325672 64.289923 -1.563367 -0.358341 27.260509 0.573700 -0.000000 -66.327400 -4.658114 1.402096 12.408660 -2.488201 1.631066 -0.360340 -8.106936 1.647780 0.571659 6.279795 6.111629 6.119828 -4.845270 -0.436343 2.968062 0.000000 0.000000 0.000000 -7.818741 3.965474 1.400410 -58.921638 7.274432 5.862450 -3.471427 -12.392527 -0.000037 3.645325 5.161521 0.167805 -0.038281 -0.056792 -0.000000 0.000000 0.000000 0.000000 0.000000 0.000000 0.000000 15.609605 5.965305 -2.809811 76.997033 30.742704 18.724694 2.011991 40.123937 0.004410 -0.311087 10.923689 -0.032174 0.024372 -0.196026 -0.000000 0.000000 0.000000 0.000000 0.000000 0.000000 0.000000 
-1.570550 16.902532 -0.053366 -148.555055 76.014262 -136.144881 -10.259111 -1.516326 -3.808811 -16.446839 9.846860 -31.741621 -1.994790 0.435224 27.126868 2.748831 12.586289 -16.448789 -1.999200 0.000000 -0.617200 10.933244 -0.770806 -6.114426 -0.760432 -17.182606 -26.973887 -0.556024 -5.393496 65.146420 -1.515208 -0.673518 25.613205 0.381900 0.000000 -65.535500 -4.365188 1.417923 12.300526 -2.430116 1.651527 -0.354217 -8.104993 1.667518 0.654576 5.900969 6.271758 6.196671 -4.910463 -0.438265 2.978524 0.000000 0.000000 0.000000 -8.022351 3.951932 1.365365 -58.950100 5.512371 5.288546 -3.396843 -12.859933 0.001516 4.774213 4.711048 0.199840 -0.031326 -0.050762 -0.000000 0.000000 0.000000 0.000000 0.000000 0.000000 0.000000 15.447199 5.956780 -2.760816 76.626377 30.417470 18.319098 2.084197 39.128096 0.005505 0.271221 10.561020 0.024002 0.021066 -0.183371 -0.000000 0.000000 0.000000 0.000000 0.000000 0.000000 0.000000 
-1.467934 16.933355 -0.144298 -149.445226 75.473277 -137.037296 -10.361233 -1.474734 -3.700561 -16.262265 9.337735 -30.656906 -1.951593 0.360618 26.312629 2.714219 12.528001 -16.135787 -1.918600 0.000000 -0.607400 10.840630 -0.759912 -6.052975 -0.404463 -16.602545 -27.789029 -0.635592 -5.444683 65.781244 -1.437313 -0.720732 23.866115 0.330700 0.000000 -64.986200 -4.088589 1.412953 12.168050 -2.374924 1.650128 -0.352844 -8.106635 1.665772 0.736257 5.591516 6.388292 6.247650 -4.971320 -0.439678 2.984439 0.000000 0.000000 0.000000 -8.161166 3.900154 1.331328 -59.016595 3.808574 4.886283 -3.322717 -13.611436 0.002802 5.842709 4.144286 0.214869 -0.025290 -0.046209 -0.000000 0.000000 0.000000 0.000000 0.000000 0.000000 0.000000 15.354217 5.893068 -2.694685 76.194384 30.076493 17.963170 2.163007 38.153769 0.006566 0.965508 10.198318 0.086477 0.016929 -0.170457 -0.000000 0.000000 0.000000 0.000000 0.000000 0.000000 0.000000 
